
<svg xmlns="http://www.w3.org/2000/svg" xml:space="preserve" width="1400px" height="800px" version="1.1" style="shape-rendering:geometricPrecision; text-rendering:geometricPrecision; image-rendering:optimizeQuality; fill-rule:evenodd; clip-rule:evenodd"
viewBox="0 0 14000 8000"
 xmlns:xlink="http://www.w3.org/1999/xlink">
 <defs>
  <style type="text/css">
    .str4 {stroke:#212932;stroke-width:49.9961;stroke-linecap:round;stroke-linejoin:round}
    .str7 {stroke:#212932;stroke-width:50.002;stroke-linecap:round;stroke-linejoin:round}
    .str5 {stroke:#E89A99;stroke-width:99.9981;stroke-linecap:round;stroke-linejoin:round}
    .str8 {stroke:#212932;stroke-width:19.9961;stroke-linecap:round;stroke-linejoin:round}
    .str2 {stroke:#D03F40;stroke-width:69.9981;stroke-linecap:round;stroke-linejoin:round}
    .str1 {stroke:#212932;stroke-width:119.994;stroke-linecap:round;stroke-linejoin:round}
    .str6 {stroke:#212932;stroke-width:39.998;stroke-linecap:round;stroke-linejoin:round}
    .str3 {stroke:#D03F40;stroke-width:39.998;stroke-linecap:round;stroke-linejoin:round}
    .str0 {stroke:#212932;stroke-width:159.998;stroke-linecap:round;stroke-linejoin:round}
    .fil3 {fill:none}
    .fil24 {fill:black}
    .fil23 {fill:#212932}
    .fil11 {fill:#568291}
    .fil18 {fill:#68737E}
    .fil20 {fill:#68737E}
    .fil8 {fill:#8FAFBA}
    .fil12 {fill:#8FAFBA}
    .fil10 {fill:#9AB7C1}
    .fil9 {fill:#C8DEE6}
    .fil16 {fill:#D03F40}
    .fil6 {fill:#D03F40}
    .fil22 {fill:#E5E5E5}
    .fil21 {fill:#E5E5E5}
    .fil7 {fill:#E89A99}
    .fil15 {fill:#E89C9D}
    .fil0 {fill:#F0F0F0}
    .fil2 {fill:#F7D9D9}
    .fil14 {fill:snow}
    .fil19 {fill:white}
    .fil17 {fill:white}
    .fil25 {fill:#212932;fill-rule:nonzero}
    .fil13 {fill:#C8DEE6;fill-rule:nonzero}
    .fil5 {fill:#D03F40;fill-rule:nonzero}
    .fil4 {fill:#E89A99;fill-rule:nonzero}
    .fil1 {fill:url(#id2)}
  </style>
    <clipPath id="id0">
     <path d="M8128 2775c283,-171 409,148 438,490 28,343 -90,634 -364,639 -274,6 -444,-333 -467,-600 -23,-267 110,-359 393,-529z"/>
    </clipPath>
    <clipPath id="id1">
     <path d="M8902 2725c351,226 562,135 519,562 -43,426 -287,670 -571,642 -285,-29 -475,-341 -432,-767 43,-426 133,-663 484,-437z"/>
    </clipPath>
  <linearGradient id="id2" gradientUnits="userSpaceOnUse" x1="8349.38" y1="940.005" x2="8750.89" y2="3270.23">
   <stop offset="0" style="stop-opacity:1; stop-color:#E89A99"/>
   <stop offset="1" style="stop-opacity:1; stop-color:#FFF2F2"/>
  </linearGradient>
 </defs>
 <g id="back">
  <ellipse class="fil0" cx="7319" cy="5805" rx="6004" ry="832"/>
 </g>
 <g id="stars">
  <path class="fil2" d="M8958 3018c-808,97 -3218,210 -3686,-498 -491,-742 1568,-1370 2206,-1503 1247,-261 3520,-459 4629,160 872,487 -146,1077 -648,1283 -754,308 -1692,485 -2501,558zm0 0c773,-105 1505,-226 2243,-493 443,-159 1803,-769 860,-1289 -1112,-614 -3781,-329 -5004,-2 -313,83 -2233,684 -1674,1302 587,649 2718,546 3575,482z"/>
  <path class="fil2" d="M6828 2805c-467,-45 -871,-147 -1018,-349 -382,-529 1288,-984 1640,-1062 -368,79 -1996,628 -1555,1072 212,212 629,306 933,339z"/>
	<path id="star_5" transform="translate(-11000, -2600)" class="fil15" d="M10887 2834c46,36 109,35 146,-13l64 -80 81 64c43,34 106,26 141,-17 36,-46 34,-108 -13,-145l-81 -64 64 -81c35,-44 27,-107 -16,-141 -46,-37 -108,-35 -146,13l-64 80 -81 -64c-43,-34 -106,-27 -141,17 -36,46 -34,108 13,145l81 64 -64 81c-34,43 -27,107 16,141z">
			<animateMotion dur="2s" repeatCount="indefinite"
				 path="M11080 2595c-640,215 -1419,399 -2086,470 -2054,218 -3691,-134 -3752,-705 -62,-572 1445,-1271 3437,-1480 1992,-210 3675,136 3741,684 53,433 -589,780 -1340,1031">
			</animateMotion>
		</path>
	<path id="star_4" transform="translate(-11300, -1000)" class="fil4" d="M11164 1089c26,21 62,20 83,-7l36 -46 46 36c25,20 61,16 80,-9 21,-26 20,-62 -7,-83l-46 -36 37 -46c19,-25 15,-61 -10,-80 -26,-21 -61,-20 -83,7l-36 46 -46 -37c-25,-19 -61,-15 -80,10 -21,26 -20,61 7,83l46 36 -36 46c-20,25 -16,61 9,80z">
			<animateMotion dur="2s" repeatCount="indefinite"
				 path="M11274 953c677,137 1113,367 1146,641 67,548 -1372,1202 -3426,1421 -2054,218 -3691,-84 -3752,-655 -62,-572 1445,-1271 3437,-1480 997,-105 1916,-63 2595,73">
			</animateMotion>
		</path>
	<path id="star_3" transform="translate(-8600, -900)" class="fil15" d="M8335 1175c46,37 109,35 146,-12l64 -81 81 64c43,34 107,27 141,-17 36,-45 34,-108 -13,-145l-81 -64 64 -81c35,-43 27,-107 -16,-141 -46,-36 -108,-35 -146,13l-64 80 -80 -63c-44,-35 -107,-27 -142,16 -36,46 -34,108 13,146l81 63 -64 81c-34,44 -27,107 16,141z">
			<animateMotion dur="2s" repeatCount="indefinite"
				 path="M8528 937c50,-6 100,-12 151,-17 1992,-210 3675,96 3741,644 67,548 -1372,1232 -3426,1451 -2054,218 -3691,-84 -3752,-655 -60,-558 1370,-1197 3286,-1423">
			</animateMotion>
		</path>
	<path id="star_2" class="fil15" transform="translate(-5700, -1700)" d="M5608 1914c36,16 77,5 95,-32l30 -64 64 29c34,16 75,1 91,-33 17,-37 6,-78 -31,-95l-65 -30 30 -64c16,-35 1,-76 -33,-92 -37,-17 -78,-6 -96,32l-29 64 -65 -30c-34,-16 -75,-1 -91,34 -17,36 -6,77 32,95l64 30 -30 64c-16,34 -1,76 34,92z">
			<animateMotion dur="2s" repeatCount="indefinite"
				 path="M5698 1723c585,-374 1680,-706 2981,-843 1992,-210 3675,136 3741,684 67,548 -1372,1232 -3426,1451 -2054,218 -3691,-114 -3752,-685 -22,-199 146,-408 456,-607">
			</animateMotion>
		</path>
	<path id="star_1" transform="translate(-6900, -3000)" class="fil4" d="M6748 3094c13,27 42,39 70,26l46 -23 24 47c12,25 43,35 68,23 26,-13 39,-42 25,-70l-23 -46 47 -24c25,-12 36,-43 23,-68 -13,-26 -42,-39 -69,-25l-47 23 -23 -47c-12,-25 -43,-36 -68,-23 -27,13 -40,42 -26,69l23 47 -47 23c-25,12 -35,43 -23,68z">
		<animateMotion dur="2s" repeatCount="indefinite"
			 path="M6888 3027c-426,-34 -1593,-172 -1646,-667 -62,-572 1445,-1271 3437,-1480 1992,-210 3675,136 3741,684 67,548 -1372,1196 -3426,1414 -784,84 -1508,96 -2106,49">
		</animateMotion>
	</path>
  
	<circle id="dot_4" class="fil15" cx="0" cy="0" r="123">
		<animateMotion 
			 dur="2s"
			 repeatCount="indefinite"
			 path="M12085 1228c170,102 270,219 285,346 67,548 -1322,1222 -3376,1441 -2054,218 -3691,-84 -3752,-655 -62,-572 1445,-1271 3437,-1480 1529,-161 2846,11 3406,348">
		</animateMotion>
		 </circle>
	<circle id="dot_3" class="fil7" cx="0" cy="0" r="145">
	<animateMotion 
		 dur="2s"
		 repeatCount="indefinite"
		 path="M9666 820c1538,-27 2699,289 2754,744 67,548 -1372,1232 -3426,1451 -2054,218 -3691,-84 -3752,-655 -62,-572 1445,-1271 3437,-1480 337,-36 675,-55 987,-60">
		</animateMotion>
  </circle>
	<circle id="dot_2" class="fil15" cx="0" cy="0" r="123">
	<animateMotion 
		 dur="2s"
		 repeatCount="indefinite"
		 path="M6246 1495c614,-245 1466,-446 2432,-548 1992,-209 3676,69 3742,617 67,548 -1372,1232 -3426,1451 -2054,218 -3691,-84 -3752,-655 -32,-295 352,-605 1004,-865">
		</animateMotion>
  </circle>
	<circle id="dot_1" class="fil7" cx="0" cy="0" r="123">
  <animateMotion 
		 dur="2s"
		 repeatCount="indefinite"
		 path="M8994 3015c-548,58 -3656,244 -3752,-655 -62,-572 1445,-1271 3437,-1480 336,-36 664,-55 976,-60 1538,-27 2710,289 2765,744 67,548 -1372,1232 -3426,1451">
		</animateMotion>
  </circle>
 </g>
 <g id="desktop">
  <path class="fil8" d="M3736 4773c51,105 19,212 -50,232l-2038 515c-126,38 -238,-23 -313,-93l-1091 -1266c-63,-69 -69,-154 -36,-185 3,17 0,55 11,68l1163 1270c19,18 179,69 205,64l2104 -532c27,-9 39,-45 45,-73z"/>
  <path class="fil9" d="M3691 4846l-2060 521c-86,21 -159,44 -268,-75l-1144 -1248c-33,-35 -14,-93 34,-102l2199 -402c52,-10 90,-4 126,33l1142 1170c33,34 17,91 -29,103z"/>
  <path class="fil8" d="M5345 5341c45,49 49,140 -58,181l-1789 683c-63,26 -139,21 -181,9l-1532 -477c-111,-55 -61,-219 -22,-255 1,29 0,85 28,96l1489 520c16,5 181,27 238,-3l1793 -670c24,-11 29,-58 34,-84z"/>
  <path class="fil9" d="M3945 4883l1363 426c56,17 58,96 3,116l-1799 673c-74,28 -201,11 -232,0l-1489 -520c-57,-20 -54,-101 4,-117l2088 -577c24,-6 50,-4 62,-1z"/>
  <path class="fil10" d="M4160 5463l340 134c14,5 12,23 0,27l-442 158c-3,1 -21,0 -25,-1l-371 -139c-13,-5 -12,-23 1,-28l489 -151c2,-1 5,-1 8,0z"/>
  <path class="fil11" d="M2318 5442c3,-1 6,-1 8,0l187 62c12,4 12,22 -1,26 -65,18 -135,35 -200,53 -3,1 -5,1 -8,0l-186 -61c-13,-4 -13,-23 0,-26 67,-18 134,-36 200,-54zm578 192c3,-1 6,-1 8,0l196 67c13,4 12,22 -1,26 -64,19 -129,38 -194,56 -2,1 -5,1 -8,0l-200 -68c-13,-4 -12,-23 1,-26 66,-18 132,-37 198,-55zm320 -88c3,-1 5,-1 8,0l188 63c13,5 13,23 0,26 -65,19 -130,38 -194,57 -3,1 -6,1 -9,0l-192 -65c-13,-5 -13,-23 0,-27 67,-18 133,-36 199,-54zm640 -177c2,-1 5,-1 8,0l173 58c13,4 12,22 -1,26 -64,19 -129,38 -194,56 -2,1 -5,1 -8,0l-178 -59c-12,-5 -12,-23 1,-27 66,-18 132,-36 199,-54zm319 -89c3,-1 6,-1 8,0l166 55c13,5 13,23 0,26 -65,19 -129,38 -194,57 -3,1 -5,1 -8,0l-171 -57c-12,-4 -12,-23 1,-26 66,-18 132,-37 198,-55zm320 -89c3,0 6,0 8,1l159 52c12,4 12,22 -1,26 -64,19 -129,38 -194,57 -2,1 -5,0 -8,0l-163 -55c-12,-4 -12,-22 1,-26 66,-18 132,-36 198,-55zm-1894 348c3,-1 5,-1 8,0l195 66c13,4 12,23 -1,26 -65,19 -130,38 -196,56 -3,1 -5,1 -8,0l-200 -68c-12,-5 -12,-23 1,-26 67,-18 134,-36 201,-54zm324 -88c3,-1 5,0 8,0l187 64c13,4 12,23 0,26 -66,19 -131,38 -197,56 -3,1 -5,1 -8,0l-192 -65c-13,-5 -12,-23 1,-27 67,-18 134,-36 201,-54zm324 -87c2,-1 5,-1 8,0l179 61c13,4 13,23 0,26 -66,19 -131,38 -197,56 -3,1 -5,1 -8,0l-184 -63c-13,-4 -12,-22 1,-26 67,-18 134,-36 201,-54zm323 -87c3,-1 6,-1 8,0l172 58c13,4 13,23 0,26 -66,19 -131,38 -197,56 -2,1 -5,1 -8,0l-177 -60c-12,-4 -12,-22 1,-26 67,-18 134,-36 201,-54zm-606 -9c3,-1 5,-1 8,0l177 59c13,4 13,22 0,26 -66,18 -131,37 -196,55 -3,1 -6,1 -8,0l-182 -60c-13,-4 -13,-23 1,-26 66,-18 133,-36 200,-54zm324 -88c3,0 5,0 8,1l170 56c13,5 12,23 -1,26 -65,19 -130,37 -196,56 -2,1 -5,1 -8,0l-174 -58c-13,-5 -13,-23 0,-27 67,-18 134,-36 201,-54zm324 -87c3,-1 5,-1 8,0l163 55c13,4 12,22 -1,26 -65,19 -131,37 -196,56 -3,0 -5,0 -8,-1l-168 -56c-13,-4 -12,-22 1,-26 67,-18 134,-36 201,-54zm324 -87c3,-1 5,-1 8,0l156 53c12,4 12,22 -1,26 -66,18 -131,37 -197,55 -2,1 -5,1 -8,0l-160 -54c-13,-4 -12,-23 1,-26 67,-18 134,-36 201,-54zm282 96c3,0 5,0 8,1l157 52c12,4 12,23 -1,26 -65,19 -131,38 -196,56 -3,1 -5,1 -8,0l-162 -54c-13,-5 -12,-23 1,-26 67,-18 134,-37 201,-55z"/>
  <path class="fil12" d="M2119 5485c67,-18 134,-36 200,-54 3,-1 6,-1 8,0l187 61c12,4 12,23 -1,26 -65,19 -135,36 -200,54 -2,1 -5,1 -8,0l-186 -61c-13,-4 -13,-23 0,-26zm778 138c3,-1 6,-1 8,0l196 66c13,5 12,23 0,26 -65,19 -130,38 -194,57 -3,1 -6,1 -9,0l-200 -68c-13,-5 -12,-23 1,-27 66,-18 132,-36 198,-54zm320 -89c3,-1 5,-1 8,0l188 64c13,4 13,22 0,26 -65,19 -130,38 -194,57 -3,1 -6,1 -9,0l-192 -66c-13,-4 -13,-22 0,-26 67,-18 133,-37 199,-55zm640 -177c2,-1 5,-1 8,0l173 58c13,5 12,23 -1,26 -64,19 -129,38 -193,57 -3,1 -6,1 -9,0l-178 -60c-12,-4 -12,-22 1,-26 66,-18 132,-37 199,-55zm319 -88c3,-1 6,-1 8,0l166 55c13,4 13,22 0,26 -65,19 -129,38 -194,57 -3,0 -5,0 -8,-1l-170 -56c-13,-5 -13,-23 0,-27 66,-18 132,-36 198,-54zm320 -89c3,-1 6,-1 8,0l159 53c12,4 12,22 -1,26 -64,19 -129,37 -194,56 -2,1 -5,1 -8,0l-163 -54c-12,-4 -12,-22 1,-26 66,-18 132,-37 198,-55zm-2095 401c67,-18 134,-36 201,-54 3,-1 5,-1 8,0l195 67c13,4 12,22 -1,26 -65,19 -130,37 -196,56 -3,1 -5,0 -8,0l-200 -69c-12,-4 -12,-22 1,-26zm525 -141c3,-1 5,-1 8,0l187 64c13,4 12,22 0,26 -66,19 -131,37 -197,56 -3,1 -5,1 -8,0l-192 -66c-13,-4 -12,-22 1,-26 67,-18 134,-36 201,-54zm123 -33c67,-18 134,-36 201,-54 2,-1 5,-1 8,0l179 61c13,4 13,22 0,26 -66,19 -131,37 -197,56 -3,1 -5,1 -8,0l-184 -63c-13,-4 -12,-23 1,-26zm524 -142c3,0 6,0 8,1l172 58c13,4 13,22 0,26 -66,19 -131,37 -197,56 -2,1 -5,1 -8,0l-177 -60c-12,-5 -12,-23 1,-26 67,-18 134,-36 201,-55zm-606 -9c3,-1 5,0 8,0l177 59c13,5 13,23 0,26 -66,19 -131,37 -196,56 -3,0 -6,0 -8,-1l-182 -60c-13,-4 -13,-22 1,-26 66,-18 133,-36 200,-54zm324 -87c3,-1 5,-1 8,0l170 57c13,4 12,22 0,26 -66,19 -131,37 -197,55 -2,1 -5,1 -8,0l-174 -58c-13,-4 -13,-22 0,-26 67,-18 134,-36 201,-54zm324 -87c3,-1 5,-1 8,0l163 55c13,4 12,22 -1,26 -65,18 -131,37 -196,55 -3,1 -5,1 -8,0l-168 -56c-13,-4 -12,-23 1,-26 67,-18 134,-36 201,-54zm324 -88c3,0 5,0 8,1l156 52c12,5 12,23 -1,26 -66,19 -131,37 -197,56 -2,1 -5,1 -8,0l-160 -54c-13,-5 -12,-23 1,-26 67,-18 134,-37 201,-55zm282 97c3,-1 5,-1 8,0l157 53c12,4 12,22 -1,26 -65,19 -131,37 -196,56 -3,1 -5,1 -8,0l-162 -55c-13,-4 -12,-22 1,-26 67,-18 134,-36 201,-54z"/>
  <path class="fil11" d="M3547 5456c2,-1 5,-1 8,0l180 61c13,4 13,22 0,26 -65,19 -129,38 -194,57 -3,1 -5,1 -8,0l-186 -63c-12,-4 -12,-22 1,-26 66,-18 132,-37 199,-55z"/>
  <path class="fil11" d="M2655 5353c3,-1 5,-1 8,0l185 61c13,4 12,22 -1,26 -65,18 -131,37 -196,55 -3,1 -5,1 -8,0l-189 -62c-13,-5 -12,-23 1,-27 67,-18 133,-35 200,-53z"/>
  <path class="fil11" d="M3914 5188c2,-1 5,-1 8,0l164 56c13,4 12,22 0,26 -66,18 -131,37 -197,56 -3,0 -5,0 -8,-1l-169 -57c-13,-4 -12,-22 1,-26 67,-18 134,-36 201,-54z"/>
  <g id="_732226800">
   <path class="fil11" d="M2142 6290c73,-19 131,-22 203,-41 3,-1 6,-1 9,0 64,16 125,29 189,45 5,1 41,40 14,48 -71,20 -132,46 -203,66 -10,2 -23,4 -36,-1 -64,-21 -127,-50 -191,-71 -27,-9 9,-44 15,-46z"/>
   <path class="fil10" d="M2348 6231c2,0 5,0 8,1l184 60c13,5 13,23 0,27 -66,18 -127,35 -192,53 -3,1 -15,3 -24,0l-177 -60c-13,-5 -13,-23 0,-27 67,-18 134,-36 201,-54z"/>
  </g>
  <g id="_732218224">
   <path class="fil11" d="M4571 5628c68,16 112,41 180,57 2,1 4,2 6,4 34,44 68,85 103,128 3,4 -2,55 -28,49 -67,-15 -130,-21 -197,-36 -9,-3 -19,-7 -26,-17 -30,-49 -54,-104 -84,-152 -12,-19 38,-35 46,-33z"/>
   <path class="fil10" d="M4766 5671c2,1 4,2 5,4l88 139c6,10 -9,26 -21,23 -61,-14 -119,-27 -181,-41 -2,-1 -12,-5 -16,-11l-83 -136c-6,-10 8,-26 20,-23 63,15 125,30 188,45z"/>
  </g>
  <g id="_732227376">
   <path class="fil11" d="M4038 6187c81,5 131,20 211,25 4,0 5,1 7,2 37,30 74,57 111,86 4,3 -9,42 -39,40 -79,-4 -156,-2 -235,-6 -10,-2 -23,-4 -29,-11 -32,-33 -54,-73 -85,-106 -13,-13 50,-31 59,-30z"/>
   <path class="fil10" d="M4048 6185c73,5 147,10 221,14 3,1 5,1 7,3l90 97c6,6 -13,20 -27,19 -74,-4 -142,-9 -215,-13 -3,0 -15,-2 -19,-6l-85 -95c-6,-7 13,-20 28,-19z"/>
  </g>
  <path id="screen" class="fil11" d="M3554 4678l-991 -1016c-20,-20 -63,-56 -127,-45l-1974 360c-64,11 -89,88 -46,136l1023 1115c70,77 144,75 226,55l1850 -468c62,-16 83,-92 39,-137z"/>
  <path id="crack_x0020_" class="fil13" d="M1741 4102l-177 -121 -8 -165 -48 -44 59 38 15 162 168 115 87 -134 0 -154 202 -124 -190 130 0 151 -90 147 5 187 -22 -2 -1 -186zm-789 -215l50 190 377 64 130 175 209 3 -1 30 -205 -14 -215 52 -136 183 110 -180 -433 -56 451 33 203 -43 -128 -168 -376 -69 -36 -200zm777 607l-238 156 -46 202 30 -207 266 -205 9 26 65 310 146 130 -168 -122 -64 -290zm168 -100l452 176 321 -119 183 -193 -178 205 242 298 -258 -286 -302 110 -3 180 -23 -183 -452 -167 18 -21zm-49 -106l146 -124 240 -48 116 -54 -114 65 -236 54 -149 150 -3 -43z"/>
  <path id="crack_cntr" class="fil9" d="M2676 4493l-42 -26 26 -30 55 -30 -39 86zm-922 -218l33 50 65 -39 18 94 54 28 -90 26 -102 50 4 -104 -36 -47 54 -58z"/>
 </g>
 <g id="script">
  <path class="fil3 str0" d="M8283 5735c-987,274 -1158,219 -2257,697"/>
  <path id="left_hand" class="fil3 str1" d="M10473 2830c10,225 147,388 126,612 -14,153 -102,334 -353,582"/>
  <path class="fil3 str1" d="M7268 3685c-118,568 -718,418 -1070,863 -78,99 -71,487 -34,712"/>
  <path class="fil3 str0" d="M9206 5830c-381,230 -823,697 -1322,1183"/>
  <path class="fil14 str2" d="M7180 1901c854,-133 1708,-266 2561,-399 31,-5 58,-1 86,11 147,66 294,132 442,198 31,14 49,44 48,78 31,1327 -64,2454 -238,3633 -23,161 54,483 -239,459l-2221 -179c-108,-8 -332,-100 -379,-278 20,-429 -33,-1150 -102,-1776l-165 -1490c-13,-116 78,-237 207,-257z"/>
  <path class="fil15" d="M9800 1653l89 162c195,354 168,118 399,-46 -73,-79 -300,-85 -488,-116z"/>
  <path class="fil16 str3" d="M9778 1489l7 309c2,88 79,142 169,108 122,-46 344,-216 366,-138 -35,-90 -365,-185 -542,-279z"/>
  <path class="fil3 str4" d="M8417 4487c112,-156 444,-256 635,-239"/>
  <path class="fil3 str4" d="M7929 2561c85,22 329,-142 405,-318"/>
  <path class="fil3 str4" d="M9073 2612c-59,-29 -345,-196 -426,-388"/>
  <path class="fil5" d="M9292 5246c5,-76 112,-71 106,7l-18 273c-6,97 -46,153 -151,146 -148,-10 -132,-138 -61,-133 27,2 99,89 107,-39l17 -254zm168 307c21,1 114,59 156,25 25,-20 26,-54 -23,-77 -76,-36 -168,-45 -161,-158 12,-166 208,-156 274,-113 56,36 29,104 -19,101 -31,-2 -88,-42 -125,-16 -20,14 -27,42 19,62 89,38 173,58 166,172 -15,220 -346,150 -340,57 2,-30 20,-56 53,-53z"/>
  <line class="fil3 str5" x1="7704" y1="5459" x2="8916" y2= "5553" />
  <line class="fil3 str5" x1="7601" y1="5240" x2="8782" y2= "5334" />
  <g id="_820726576">
   <path class="fil17 str6" d="M7993 6820c-71,-154 -179,-10 -325,-20 -67,-5 -99,148 -81,272 16,110 75,195 129,164 12,-4 36,41 77,14 151,-100 168,-92 215,-247 14,-47 -1,-147 -15,-183z"/>
   <path class="fil18 str6" d="M7402 7317c-18,-38 39,-426 181,-527 171,-121 76,-4 179,-40 192,-67 190,191 175,352 -9,98 -123,215 -189,265 -6,4 -112,17 -236,46 -39,9 -102,-54 -110,-96z"/>
   <path class="fil19 str6" d="M7395 7265c110,-65 220,5 304,-94 314,-468 60,-1023 -453,-687 -101,305 -15,658 149,781z"/>
   <path class="fil19 str6" d="M7340 6369c188,-76 415,92 479,438 64,345 -8,668 -253,770 -244,103 -334,-146 -398,-492 -64,-345 -15,-640 172,-716z"/>
   <path class="fil19 str6" d="M7305 6393c188,-83 392,118 456,450 64,331 -36,667 -223,750 -188,83 -392,-118 -456,-450 -64,-331 36,-667 223,-750z"/>
  </g>
  <g id="_724387264">
   <path class="fil17 str6" d="M6079 6318c-103,-153 -182,-9 -330,-20 -67,-4 -69,149 -25,273 38,109 114,194 161,163 11,-3 28,-16 64,-43 130,-100 165,-35 181,-189 5,-47 -31,-148 -51,-184z"/>
   <path class="fil18 str6" d="M5321 6737c-27,-42 27,-421 161,-484 161,-77 123,-21 227,-30 201,-17 317,224 306,375 -7,99 -52,173 -114,205 -17,8 -56,81 -121,113 -32,15 -127,73 -189,72 -40,-1 -253,-209 -270,-251z"/>
   <path class="fil19 str6" d="M5481 6708c93,-45 216,46 278,-37 208,-412 -159,-1021 -591,-781 -34,288 126,662 313,818z"/>
   <path class="fil19 str6" d="M5196 5836c171,-83 415,118 546,449 131,331 104,621 -48,735 -21,15 -82,52 -106,54 -163,12 -350,-199 -465,-488 -110,-280 -134,-570 -26,-702 62,-34 72,-36 99,-48z"/>
   <path class="fil19 str6" d="M5114 5874c171,-83 416,119 547,450 131,331 98,667 -73,750 -170,83 -415,-118 -546,-449 -131,-332 -98,-668 72,-751z"/>
  
  
   			
  
  </g>
  <g id="left_palm">
   <path class="fil17 str7" d="M10259 2765c-35,42 70,113 189,58 30,-13 210,-71 186,-151 105,-179 132,-270 93,-441 -7,-33 -50,-102 -108,-106 -4,-11 -19,-208 -111,-243 -47,-18 -114,-15 -123,78 -52,-29 -146,-83 -203,109 -69,-26 -115,33 -123,118 -8,79 70,147 61,277 -8,112 39,344 139,301z"/>
   <path class="fil3 str7" d="M10182 2069c48,13 149,175 127,242"/>
   <path class="fil3 str7" d="M10385 1960c73,41 83,198 85,291"/>
   <path class="fil3 str7" d="M10249 2771c15,-1 83,-21 92,-28"/>
   <path class="fil3 str7" d="M10531 2708c15,3 83,-18 111,-38"/>
   <path class="fil3 str7" d="M10624 2157c18,79 17,94 18,154"/>
   
  
  </g>
  <g id="_724389024">
   <path class="fil17 str7" d="M6163 5440c-50,21 -93,-82 -10,-170 21,-22 121,-160 193,-123 199,-49 294,-53 450,16 30,13 87,63 76,113 9,5 197,60 208,145 5,42 -14,97 -106,85 15,49 44,140 -156,146 8,64 -60,90 -144,79 -79,-11 -126,-90 -254,-110 -110,-18 -324,-106 -257,-181z"/>
   <path class="fil3 str7" d="M6818 5652c-1,-42 -133,-161 -203,-157"/>
   <path class="fil3 str7" d="M6974 5506c-22,-69 -171,-111 -262,-132"/>
   <path class="fil3 str7" d="M6154 5448c5,-13 41,-65 50,-71"/>
   <path class="fil3 str7" d="M6285 5226c1,-13 38,-67 64,-85"/>
   <path class="fil3 str7" d="M6842 5265c-72,-32 -87,-34 -145,-48"/>
  </g>
  <g id="eyes">
   <path class="fil20" d="M8748 2736c258,89 622,37 668,409 46,372 -67,773 -438,824 -370,50 -570,-268 -566,-700 3,-432 78,-622 336,-533z"/>
   <path class="fil20" d="M8215 2959c-182,108 -466,123 -444,417 22,295 168,588 455,571 288,-17 391,-294 323,-627 -68,-333 -153,-469 -334,-361z"/>
   <path class="fil21" d="M8128 2775c283,-171 409,148 438,490 28,343 -90,634 -364,639 -274,6 -444,-333 -467,-600 -23,-267 110,-359 393,-529z"/>
   <g style="clip-path:url(#id0)">
    <g>
     <path id="1" class="fil19" d="M8128 2576c229,-11 439,258 467,600 29,342 -134,628 -363,639 -230,11 -439,-258 -467,-600 -29,-342 134,-629 363,-639z"/>
    </g>
   </g>
   <path class="fil3 str4" d="M8128 2775c283,-171 409,148 438,490 28,343 -90,634 -364,639 -274,6 -444,-333 -467,-600 -23,-267 110,-359 393,-529z"/>
   <path class="fil22" d="M8902 2725c351,226 562,135 519,562 -43,426 -287,670 -571,642 -285,-29 -475,-341 -432,-767 43,-426 133,-663 484,-437z"/>
   <g style="clip-path:url(#id1)">
    <g>
     <path id="1" class="fil19" d="M8995 2389c166,16 302,149 378,342 27,111 36,236 23,366 -43,426 -309,748 -593,720 -166,-17 -302,-150 -378,-343 -27,-111 -36,-235 -23,-365 43,-427 308,-749 593,-720z"/>
    </g>
   </g>
   <path class="fil3 str4" d="M8902 2725c351,226 562,135 519,562 -43,426 -287,670 -571,642 -285,-29 -475,-341 -432,-767 43,-426 133,-663 484,-437z"/>
   <path class="fil17" d="M8160 2837c312,-147 380,210 401,434 21,224 -138,512 -358,524 -220,12 -417,-203 -439,-480 -23,-278 84,-331 396,-478z"/>
   <path class="fil23" d="M8290 2895c71,-2 129,52 131,122 2,69 -54,126 -125,128 -71,2 -129,-53 -131,-122 -2,-69 54,-127 125,-128z"/>
   <path class="fil23" d="M8736 2859c71,-1 130,53 131,122 2,70 -54,127 -125,129 -70,1 -129,-53 -131,-122 -1,-69 55,-127 125,-129z"/>
  </g>
 </g>
 <g id="bug">
 <path id="legs" class="fil3 str4" d="M12312 5501c46,18 88,92 94,137m-1167 -85c-37,28 -60,127 -70,168m18 -260c-53,28 -134,127 -169,169m1052 11c26,25 4,116 -5,154m175 -230c42,31 49,97 36,149"/>
  <g id="bug_bd">
   <path class="fil24" d="M11070 5395c19,50 32,76 79,115 322,262 881,308 1205,-57 99,-111 -123,-106 -230,-106 -68,0 -932,-21 -967,23 -8,11 -62,14 -80,22l-7 3z"/>
   <path class="fil5" d="M11619 4714c-267,-120 -553,211 -586,514 -37,355 540,385 549,362 55,-129 50,-758 37,-876z"/>
   <path class="fil5" d="M11619 4714c432,-167 773,239 812,517 59,429 -839,383 -842,378 -62,-129 -3,-777 30,-895z"/>
   <path class="fil25" d="M11637 5603c3,7 1,15 -5,18 -7,4 -15,1 -18,-6 -30,-55 -39,-201 -38,-362 -24,-228 -19,-472 25,-546 11,4 15,6 18,7 8,-4 39,-14 43,-15 -39,69 -78,325 -60,554 -1,158 8,300 35,350z"/>
   <path class="fil3 str6" d="M11745 5235c130,-172 132,-171 316,-99"/>
   <path class="fil3 str6" d="M11533 5290c-93,-62 -97,-362 -281,-290"/>
   <ellipse class="fil23" cx="11621" cy="5550" rx="421" ry="291"/>
   <path class="fil19 str8" d="M11433 5133c44,7 39,50 66,92 21,31 60,59 72,82 41,84 -62,175 -138,175 -76,0 -138,-78 -138,-175 0,-96 96,-180 138,-174z"/>
   <path class="fil19 str8" d="M11694 5182c68,-6 163,65 163,148 0,83 -67,150 -150,150 -84,0 -155,-87 -131,-154 16,-27 43,-45 64,-72 18,-24 20,-66 54,-72z"/>
   <circle class="fil23" cx="11406" cy="5241" r="60"/>
   <circle class="fil23" cx="11690" cy="5297" r="60"/>
   <path class="fil23" d="M11783 4700c41,0 74,30 74,68 0,38 -33,68 -74,68 -41,0 -74,-30 -74,-68 0,-38 33,-68 74,-68z"/>
   <path class="fil23" d="M11729 4941c30,0 55,19 55,42 0,23 -25,42 -55,42 -30,0 -54,-19 -54,-42 0,-23 24,-42 54,-42z"/>
   <path class="fil23" d="M12011 4830c62,0 112,38 112,84 0,46 -50,84 -112,84 -61,0 -111,-38 -111,-84 0,-46 50,-84 111,-84z"/>
   <path class="fil23" d="M12319 5026c38,14 55,70 38,125 -18,55 -63,88 -101,74 -38,-14 -55,-69 -37,-124 17,-55 62,-89 100,-75z"/>
   <path class="fil23" d="M12140 5324c42,0 77,26 77,59 0,34 -35,60 -77,60 -43,0 -77,-26 -77,-60 0,-33 34,-59 77,-59z"/>
   <circle class="fil23" cx="12061" cy="5136" r="59"/>
   <circle class="fil23" cx="11252" cy="5000" r="59"/>
   <path class="fil23" d="M11160 5149c41,0 74,30 74,68 0,38 -33,68 -74,68 -41,0 -74,-30 -74,-68 0,-38 33,-68 74,-68z"/>
   <ellipse class="fil23" cx="11432" cy="4869" rx="95" ry="71"/>
   <path id="mouth" class="fil17" d="M11594 5665c76,-17 166,-31 202,-76 21,-25 31,-58 37,-93 27,34 32,79 -4,108 -52,42 -156,72 -235,61z"/>

 </g>
 </g>
   					
		<animateTransform  href="#left_palm"  
			attributeName="transform" 
			attributeType="XML"  
			type="translate" 
			dur="2s" fill="freeze" 
			values="0,0;0,320;0,0" 
			repeatCount="indefinite"
			/>
			
			<animate xlink:href="#left_hand"
			attributeName="d"
			attributeType="XML"
			values="M10473 2830c10,225 147,388 126,612 -14,153 -102,334 -353,582;
			M10403 2986c9,225 381,476 366,701 -20,293 -251,258 -523,337;
			M10473 2830c10,225 147,388 126,612 -14,153 -102,334 -353,582"
			dur="2s"
			repeatCount="indefinite" />
			
<animate href="#screen" id="screen_l"  attributeType="CSS" attributeName="opacity" values="1;0.2;1;0.4;1;0.4;1" dur="0.7s" begin="0;screen_l.end+1s" />

<animateTransform  href="#bug_bd"  
			attributeName="transform" 
			attributeType="XML"  
			type="translate" 
			dur="1s" fill="freeze" 
			values="0,0;-60,0;0,0" 
			repeatCount="indefinite"
			/>
<animate xlink:href="#legs"
			attributeName="d"
			attributeType="XML"
			values="M12312 5501c46,18 88,92 94,137m-1167 -85c-37,28 -60,127 -70,168m18 -260c-53,28 -134,127 -169,169m1052 11c26,25 4,116 -5,154m175 -230c42,31 49,97 36,149;
			M12206 5501c53,18 151,92 173,137m-1227 -85c-26,28 -4,127 1,168m-86 -260c-43,28 -69,119 -78,169m1026 11c34,25 45,116 50,154m92 -230c54,31 104,97 110,149;
			M12312 5501c46,18 88,92 94,137m-1167 -85c-37,28 -60,127 -70,168m18 -260c-53,28 -134,127 -169,169m1052 11c26,25 4,116 -5,154m175 -230c42,31 49,97 36,149"
			dur="1s"
			repeatCount="indefinite" />
</svg>
